<?xml version="1.0" encoding="UTF-8" standalone="no"?>
<!-- Created with Inkscape (http://www.inkscape.org/) -->

<svg
   xmlns:dc="http://purl.org/dc/elements/1.1/"
   xmlns:cc="http://creativecommons.org/ns#"
   xmlns:rdf="http://www.w3.org/1999/02/22-rdf-syntax-ns#"
   xmlns:svg="http://www.w3.org/2000/svg"
   xmlns="http://www.w3.org/2000/svg"
   xmlns:sodipodi="http://sodipodi.sourceforge.net/DTD/sodipodi-0.dtd"
   xmlns:inkscape="http://www.inkscape.org/namespaces/inkscape"
   width="400mm"
   height="300mm"
   viewBox="0 0 1417.3229 1062.9921"
   id="svg2"
   version="1.1"
   inkscape:version="0.91 r13725"
   sodipodi:docname="laptop-stand.svg">
  <defs
     id="defs4">
    <inkscape:path-effect
       effect="envelope"
       id="path-effect3347"
       is_visible="true"
       yy="true"
       xx="true"
       bendpath1="m 111.42857,140.93363 165.71429,0"
       bendpath2="m 277.14286,140.93363 0,177.14286"
       bendpath3="m 111.42857,318.07649 165.71429,0"
       bendpath4="m 111.42857,140.93363 0,177.14286" />
  </defs>
  <sodipodi:namedview
     id="base"
     pagecolor="#ffffff"
     bordercolor="#666666"
     borderopacity="1.0"
     inkscape:pageopacity="0.0"
     inkscape:pageshadow="2"
     inkscape:zoom="0.49497475"
     inkscape:cx="1005.8182"
     inkscape:cy="502.69807"
     inkscape:document-units="mm"
     inkscape:current-layer="layer1"
     showgrid="false"
     inkscape:window-width="1680"
     inkscape:window-height="1005"
     inkscape:window-x="0"
     inkscape:window-y="1"
     inkscape:window-maximized="1">
    <inkscape:grid
       type="xygrid"
       id="grid3349"
       dotted="false"
       units="mm"
       spacingx="17.716536"
       spacingy="17.716536"
       originx="35.433072"
       originy="35.433071"
       empcolor="#d83f11"
       empopacity="0.36078431"
       empspacing="4" />
  </sodipodi:namedview>
  <metadata
     id="metadata7">
    <rdf:RDF>
      <cc:Work
         rdf:about="">
        <dc:format>image/svg+xml</dc:format>
        <dc:type
           rdf:resource="http://purl.org/dc/dcmitype/StillImage" />
        <dc:title></dc:title>
      </cc:Work>
    </rdf:RDF>
  </metadata>
  <g
     inkscape:label="Layer 1"
     inkscape:groupmode="layer"
     id="layer1"
     transform="translate(0,10.62992)">
    <path
       style="fill:none;fill-rule:evenodd;stroke:#000000;stroke-width:0.70866144;stroke-linecap:butt;stroke-linejoin:miter;stroke-miterlimit:4;stroke-dasharray:none;stroke-opacity:1"
       d="m 19.433594,309.13477 0,118.76562 77.539066,0 0,10.27539 -77.539066,0 0,67.76563 L 52,538.50977 l -8.767578,8.76757 -23.798828,-23.79882 0,29.83203 30.996094,30.99804 -8.769532,8.76953 -22.226562,-22.22656 0,29.60352 30.423828,30.42383 -12.527344,12.52734 -17.896484,-17.89648 0,202.92187 78.318356,0 0,10.27734 -78.318356,0 0,108.22072 141.732426,0 0,-70.8672 497.19531,0 0,70.8672 141.73242,0 0,-253.46486 -70.86523,-41.43359 0,46.86719 -79.01758,-43.39063 -41.14453,74.8418 -9.00391,-4.95117 41.14062,-74.83594 -433.3496,-237.96289 -38.81836,70.60937 -9.00586,-4.95117 38.8164,-70.60351 z m 141.732426,336.61328 354.33007,159.44922 -354.33007,0 z"
       id="path3353"
       inkscape:connector-curvature="0"
       sodipodi:nodetypes="ccccccccccccccccccccccccccccccccccccccccccc" />
    <path
       style="fill:none;fill-opacity:1;fill-rule:evenodd;stroke:#000000;stroke-width:0.77952754;stroke-linecap:butt;stroke-linejoin:miter;stroke-miterlimit:4;stroke-dasharray:none;stroke-opacity:1"
       d="m 827.76207,958.86367 141.7325,0 0,-30.55663 -77.0801,0 0,-10.27539 77.0801,0 0,-857.566366 -78.0918,0 0,-10.2754 78.0918,0 0,-30.2871 -141.7325,0 z"
       id="path4236"
       inkscape:connector-curvature="0"
       sodipodi:nodetypes="ccccccccccccc" />
    <path
       sodipodi:nodetypes="ccccccccccccccccccccccccccccccccccccccccccc"
       inkscape:connector-curvature="0"
       id="path4237"
       d="m 804.25619,657.82303 0,-118.76562 -77.53906,0 0,-10.27539 77.53906,0 0,-67.76563 -32.5664,-32.56836 8.76757,-8.76757 23.79883,23.79882 0,-29.83203 -30.99609,-30.99804 8.76953,-8.76953 22.22656,22.22656 0,-29.60352 -30.42383,-30.42383 12.52735,-12.52734 17.89648,17.89648 0,-202.92187 -78.31835,0 0,-10.27734 78.31835,0 0,-108.220722 -141.73242,0 0,70.867202 -497.19531,0 0,-70.867202 -141.732424,0 0,253.464862 70.865234,41.43359 0,-46.86719 79.01758,43.39063 41.14453,-74.8418 9.00391,4.95117 -41.14062,74.83594 433.3496,237.96289 38.81836,-70.60937 9.00586,4.95117 -38.8164,70.60351 z M 662.52377,321.20975 308.1937,161.76053 l 354.33007,0 z"
       style="fill:none;fill-rule:evenodd;stroke:#000000;stroke-width:0.70866144;stroke-linecap:butt;stroke-linejoin:miter;stroke-miterlimit:4;stroke-dasharray:none;stroke-opacity:1" />
    <path
       sodipodi:nodetypes="ccccccccccccc"
       inkscape:connector-curvature="0"
       id="path4239"
       d="m 991.7621,958.86367 141.7325,0 0,-30.55663 -77.0801,0 0,-10.27539 77.0801,0 0,-857.566366 -78.0918,0 0,-10.2754 78.0918,0 0,-30.2871 -141.7325,0 z"
       style="fill:none;fill-opacity:1;fill-rule:evenodd;stroke:#000000;stroke-width:0.77952754;stroke-linecap:butt;stroke-linejoin:miter;stroke-miterlimit:4;stroke-dasharray:none;stroke-opacity:1" />
    <path
       style="fill:none;fill-opacity:1;fill-rule:evenodd;stroke:#000000;stroke-width:0.77952754;stroke-linecap:butt;stroke-linejoin:miter;stroke-miterlimit:4;stroke-dasharray:none;stroke-opacity:1"
       d="m 1153.7621,958.86367 141.7325,0 0,-30.55663 -77.0801,0 0,-10.27539 77.0801,0 0,-857.566366 -78.0918,0 0,-10.2754 78.0918,0 0,-30.2871 -141.7325,0 z"
       id="path4241"
       inkscape:connector-curvature="0"
       sodipodi:nodetypes="ccccccccccccc" />
  </g>
</svg>
